<svg xmlns="http://www.w3.org/2000/svg" viewBox="0 0 512 512"><path d="M288.101 172.105h-64.202c-44.623 0-80.927 36.304-80.927 80.927v101.974c0 8.94 7.246 16.185 16.185 16.185h19.611l10.116 123.781c.685 8.4 7.704 14.869 16.132 14.869h102.508c8.449 0 15.479-6.501 16.137-14.934l9.625-123.722h19.557c8.94 0 16.185-7.246 16.185-16.185V253.033c0-44.624-36.304-80.928-80.927-80.928zm48.557 166.711h-18.344c-8.449 0-15.479 6.501-16.137 14.934l-9.625 123.722h-72.619l-10.116-123.786c-.685-8.406-7.704-14.869-16.132-14.869h-18.344v-85.783c0-26.771 21.786-48.556 48.556-48.556h64.202c26.776 0 48.556 21.786 48.556 48.556v85.782zM255.73 33.45c-35.7 0-64.742 29.042-64.742 64.742s29.042 64.742 64.742 64.742 64.742-29.042 64.742-64.742S291.43 33.45 255.73 33.45zm0 97.113c-17.853 0-32.371-14.518-32.371-32.371s14.518-32.371 32.371-32.371 32.371 14.518 32.371 32.371-14.518 32.371-32.371 32.371z"/><path d="M431.073 140.274H366.87c-30.251 0-57.863 16.752-72.058 43.717l28.654 15.074c8.573-16.299 25.206-26.42 43.404-26.42h64.197c26.776 0 48.556 21.786 48.556 48.556v85.783H460.74c-8.449 0-15.479 6.501-16.137 14.934l-9.625 123.727H362.44l-6.949-90.795-32.274 2.466 8.093 105.75c.642 8.433 7.677 14.95 16.137 14.95h102.508c8.454 0 15.484-6.501 16.137-14.934l9.625-123.727h20.097c8.94 0 16.185-7.246 16.185-16.185V221.201c.001-44.623-36.303-80.927-80.926-80.927zM398.702 2.158c-35.7 0-64.742 29.042-64.742 64.742s29.042 64.742 64.742 64.742c35.705 0 64.742-29.042 64.742-64.742S434.401 2.158 398.702 2.158zm0 97.113c-17.853 0-32.371-14.518-32.371-32.371s14.518-32.371 32.371-32.371 32.371 14.518 32.371 32.371c0 17.852-14.519 32.371-32.371 32.371zM80.927 173.184h64.202c18.198 0 34.826 10.121 43.404 26.42l28.648-15.074c-14.189-26.965-41.802-43.717-72.052-43.717H80.927C36.304 140.813 0 177.118 0 221.741V323.17c0 8.94 7.246 16.185 16.185 16.185h19.557l9.625 123.727c.653 8.433 7.688 14.934 16.137 14.934h102.508c8.465 0 15.5-6.523 16.137-14.961l8.093-106.824-32.274-2.444-6.96 91.858H76.482l-9.63-123.727c-.653-8.433-7.688-14.934-16.137-14.934H32.371v-85.243c0-26.771 21.786-48.557 48.556-48.557zM112.759 2.158c-35.7 0-64.742 29.042-64.742 64.742s29.042 64.742 64.742 64.742S177.501 102.6 177.501 66.9 148.458 2.158 112.759 2.158zm0 97.113c-17.853 0-32.371-14.518-32.371-32.371s14.518-32.371 32.371-32.371c17.847 0 32.371 14.518 32.371 32.371 0 17.852-14.519 32.371-32.371 32.371z"/></svg>