<svg xmlns="http://www.w3.org/2000/svg" xmlns:xlink="http://www.w3.org/1999/xlink" width="30" height="33"><defs><path id="a" d="M56 45.43c0 .32-.25.57-.56.57H29.56a.56.56 0 0 1-.56-.57c0-.3.25-.56.56-.56h1.28v-5.11c0-.84.68-1.52 1.5-1.52h2.73c.83 0 1.5.68 1.5 1.52v5.1h3.1V35c0-.84.67-1.52 1.5-1.52h2.73c.82 0 1.5.68 1.5 1.52v9.87h3.1V26.83c0-.84.67-1.52 1.5-1.52h2.72c.83 0 1.5.68 1.5 1.52v18.04h1.22c.31 0 .56.25.56.56zm-20.55-.56v-5.11a.39.39 0 0 0-.38-.4h-2.73a.39.39 0 0 0-.38.4v5.1zM44.28 35a.39.39 0 0 0-.38-.39h-2.73a.39.39 0 0 0-.39.4v9.86h3.5zm8.83 9.87V26.83a.39.39 0 0 0-.39-.4H50a.39.39 0 0 0-.38.4v18.04zm1.11-27.25v3.23c0 .31-.25.56-.56.56a.56.56 0 0 1-.55-.56v-1.92l-5.9 6a.55.55 0 0 1-.79 0l-2.08-2.1-9.61 9.77a.55.55 0 0 1-.8 0 .57.57 0 0 1 0-.8l10.02-10.18a.55.55 0 0 1 .79 0l2.07 2.11 5.51-5.6h-2.08a.56.56 0 0 1-.56-.56c0-.32.25-.57.56-.57h3.4a.57.57 0 0 1 .58.6v.02zm-21.76 16c.3 0 .55.25.55.56 0 .31-.25.57-.55.57a.56.56 0 0 1-.56-.57c0-.31.25-.57.56-.57z"/><path id="b" d="M47.88 29.43l-3.08-6.5a.7.7 0 0 0-.52-.4.7.7 0 0 0-.6.19l-3.96 4.81a10.89 10.89 0 0 1-3.11 2.6l2.02 4.27c1.31-.52 2.73-.8 4.14-.78l6.09.03a.7.7 0 0 0 .52-.35.7.7 0 0 0 .02-.66.71.71 0 0 1 .33-.95.7.7 0 0 1 .95.34c.3.63.27 1.36-.07 1.97a2.12 2.12 0 0 1-1.72 1.08l-6.13-.04c-1.2 0-2.4.22-3.52.65l2.08 4.38a2.14 2.14 0 0 1-1 2.85c-.5.24-1.07.27-1.6.1-.54-.2-1-.6-1.25-1.13l-2.11-4.47a2.84 2.84 0 0 1-2.95-1.6l-.8-1.67a2.86 2.86 0 0 1 1.34-3.8l2.49-1.21a9.49 9.49 0 0 0 3.19-2.52l3.99-4.84a2.12 2.12 0 0 1 3.46.54l3.08 6.5c.16.35.01.77-.34.94a.7.7 0 0 1-.94-.33zm-12.54 1.34l-1.78.86c-.7.34-1 1.2-.67 1.9l.8 1.68c.31.67 1.1.98 1.8.7a.7.7 0 0 1 .9.36l2.36 5c.09.19.24.33.43.4.18.06.37.04.54-.04.34-.17.48-.6.32-.94z"/></defs><g opacity=".4" transform="translate(-27 -15)"><use xlink:href="#a"/><use fill="#fff" xlink:href="#a"/></g><g transform="translate(-27 -15)"><use xlink:href="#b"/><use fill="#fff" xlink:href="#b"/></g></svg>