<?xml version="1.0" encoding="UTF-8" standalone="no"?><svg xmlns="http://www.w3.org/2000/svg" xmlns:xlink="http://www.w3.org/1999/xlink"><symbol id="arrow-down" xmlns="http://www.w3.org/2000/svg" width="512" height="512" viewBox="0 0 451.847 451.847"><path d="M225.923 354.706c-8.098 0-16.195-3.092-22.369-9.263L9.27 151.157c-12.359-12.359-12.359-32.397 0-44.751 12.354-12.354 32.388-12.354 44.748 0l171.905 171.915 171.906-171.909c12.359-12.354 32.391-12.354 44.744 0 12.365 12.354 12.365 32.392 0 44.751L248.292 345.449c-6.177 6.172-14.274 9.257-22.369 9.257z"></path></symbol><symbol id="bell" xmlns="http://www.w3.org/2000/svg" viewBox="0 0 512 512"><path d="M467.819 431.851l-36.651-61.056a181.486 181.486 0 0 1-25.835-93.312V224c0-82.325-67.008-149.333-149.333-149.333S106.667 141.675 106.667 224v53.483c0 32.875-8.939 65.131-25.835 93.312l-36.651 61.056a10.665 10.665 0 0 0-.149 10.731 10.704 10.704 0 0 0 9.301 5.419h405.333c3.84 0 7.403-2.069 9.301-5.419a10.665 10.665 0 0 0-.148-10.731zm-395.648-5.184l26.944-44.907A202.631 202.631 0 0 0 128 277.483V224c0-70.592 57.408-128 128-128s128 57.408 128 128v53.483c0 36.736 9.984 72.789 28.864 104.277l26.965 44.907H72.171z"></path><path d="M256 0c-23.531 0-42.667 19.136-42.667 42.667v42.667C213.333 91.221 218.112 96 224 96s10.667-4.779 10.667-10.667V42.667c0-11.776 9.557-21.333 21.333-21.333s21.333 9.557 21.333 21.333v42.667C277.333 91.221 282.112 96 288 96s10.667-4.779 10.667-10.667V42.667C298.667 19.136 279.531 0 256 0zM302.165 431.936c-3.008-5.077-9.515-6.741-14.613-3.819-5.099 2.987-6.805 9.536-3.819 14.613 2.773 4.715 4.288 10.368 4.288 15.936 0 17.643-14.357 32-32 32s-32-14.357-32-32c0-5.568 1.515-11.221 4.288-15.936 2.965-5.099 1.259-11.627-3.819-14.613-5.141-2.923-11.627-1.259-14.613 3.819-4.715 8.064-7.211 17.301-7.211 26.731C202.667 488.085 226.581 512 256 512s53.333-23.915 53.376-53.333c0-9.43-2.496-18.667-7.211-26.731z"></path></symbol><symbol id="check-circle" xmlns="http://www.w3.org/2000/svg" viewBox="0 0 512 512"><path d="M468.907 214.604c-11.423 0-20.682 9.26-20.682 20.682v20.831c-.031 54.338-21.221 105.412-59.666 143.812-38.417 38.372-89.467 59.5-143.761 59.5h-.12C132.506 459.365 41.3 368.056 41.364 255.883c.031-54.337 21.221-105.411 59.667-143.813 38.417-38.372 89.468-59.5 143.761-59.5h.12c28.672.016 56.49 5.942 82.68 17.611 10.436 4.65 22.659-.041 27.309-10.474 4.648-10.433-.04-22.659-10.474-27.309-31.516-14.043-64.989-21.173-99.492-21.192h-.144c-65.329 0-126.767 25.428-172.993 71.6C25.536 129.014.038 190.473 0 255.861c-.037 65.386 25.389 126.874 71.599 173.136 46.21 46.262 107.668 71.76 173.055 71.798h.144c65.329 0 126.767-25.427 172.993-71.6 46.262-46.209 71.76-107.668 71.798-173.066v-20.842c0-11.423-9.259-20.683-20.682-20.683z"></path><path d="M505.942 39.803c-8.077-8.076-21.172-8.076-29.249 0L244.794 271.701l-52.609-52.609c-8.076-8.077-21.172-8.077-29.248 0-8.077 8.077-8.077 21.172 0 29.249l67.234 67.234a20.616 20.616 0 0 0 14.625 6.058 20.618 20.618 0 0 0 14.625-6.058L505.942 69.052c8.077-8.077 8.077-21.172 0-29.249z"></path></symbol><symbol id="left-arrow" xmlns="http://www.w3.org/2000/svg" viewBox="0 0 31.494 31.494" width="512" height="512"><path d="M10.273 5.009a1.112 1.112 0 0 1 1.587 0 1.12 1.12 0 0 1 0 1.571l-8.047 8.047h26.554c.619 0 1.127.492 1.127 1.111s-.508 1.127-1.127 1.127H3.813l8.047 8.032c.429.444.429 1.159 0 1.587a1.112 1.112 0 0 1-1.587 0L.321 16.532a1.12 1.12 0 0 1 0-1.571l9.952-9.952z"></path></symbol><symbol id="group" xmlns="http://www.w3.org/2000/svg" viewBox="0 0 512 512"><path d="M288.101 172.105h-64.202c-44.623 0-80.927 36.304-80.927 80.927v101.974c0 8.94 7.246 16.185 16.185 16.185h19.611l10.116 123.781c.685 8.4 7.704 14.869 16.132 14.869h102.508c8.449 0 15.479-6.501 16.137-14.934l9.625-123.722h19.557c8.94 0 16.185-7.246 16.185-16.185V253.033c0-44.624-36.304-80.928-80.927-80.928zm48.557 166.711h-18.344c-8.449 0-15.479 6.501-16.137 14.934l-9.625 123.722h-72.619l-10.116-123.786c-.685-8.406-7.704-14.869-16.132-14.869h-18.344v-85.783c0-26.771 21.786-48.556 48.556-48.556h64.202c26.776 0 48.556 21.786 48.556 48.556v85.782zM255.73 33.45c-35.7 0-64.742 29.042-64.742 64.742s29.042 64.742 64.742 64.742 64.742-29.042 64.742-64.742S291.43 33.45 255.73 33.45zm0 97.113c-17.853 0-32.371-14.518-32.371-32.371s14.518-32.371 32.371-32.371 32.371 14.518 32.371 32.371-14.518 32.371-32.371 32.371z"></path><path d="M431.073 140.274H366.87c-30.251 0-57.863 16.752-72.058 43.717l28.654 15.074c8.573-16.299 25.206-26.42 43.404-26.42h64.197c26.776 0 48.556 21.786 48.556 48.556v85.783H460.74c-8.449 0-15.479 6.501-16.137 14.934l-9.625 123.727H362.44l-6.949-90.795-32.274 2.466 8.093 105.75c.642 8.433 7.677 14.95 16.137 14.95h102.508c8.454 0 15.484-6.501 16.137-14.934l9.625-123.727h20.097c8.94 0 16.185-7.246 16.185-16.185V221.201c.001-44.623-36.303-80.927-80.926-80.927zM398.702 2.158c-35.7 0-64.742 29.042-64.742 64.742s29.042 64.742 64.742 64.742c35.705 0 64.742-29.042 64.742-64.742S434.401 2.158 398.702 2.158zm0 97.113c-17.853 0-32.371-14.518-32.371-32.371s14.518-32.371 32.371-32.371 32.371 14.518 32.371 32.371c0 17.852-14.519 32.371-32.371 32.371zM80.927 173.184h64.202c18.198 0 34.826 10.121 43.404 26.42l28.648-15.074c-14.189-26.965-41.802-43.717-72.052-43.717H80.927C36.304 140.813 0 177.118 0 221.741V323.17c0 8.94 7.246 16.185 16.185 16.185h19.557l9.625 123.727c.653 8.433 7.688 14.934 16.137 14.934h102.508c8.465 0 15.5-6.523 16.137-14.961l8.093-106.824-32.274-2.444-6.96 91.858H76.482l-9.63-123.727c-.653-8.433-7.688-14.934-16.137-14.934H32.371v-85.243c0-26.771 21.786-48.557 48.556-48.557zM112.759 2.158c-35.7 0-64.742 29.042-64.742 64.742s29.042 64.742 64.742 64.742S177.501 102.6 177.501 66.9 148.458 2.158 112.759 2.158zm0 97.113c-17.853 0-32.371-14.518-32.371-32.371s14.518-32.371 32.371-32.371c17.847 0 32.371 14.518 32.371 32.371 0 17.852-14.519 32.371-32.371 32.371z"></path></symbol><symbol id="nav-logo" xmlns="http://www.w3.org/2000/svg" xmlns:xlink="http://www.w3.org/1999/xlink" width="30" height="33"><defs><path d="M56 45.43c0 .32-.25.57-.56.57H29.56a.56.56 0 0 1-.56-.57c0-.3.25-.56.56-.56h1.28v-5.11c0-.84.68-1.52 1.5-1.52h2.73c.83 0 1.5.68 1.5 1.52v5.1h3.1V35c0-.84.67-1.52 1.5-1.52h2.73c.82 0 1.5.68 1.5 1.52v9.87h3.1V26.83c0-.84.67-1.52 1.5-1.52h2.72c.83 0 1.5.68 1.5 1.52v18.04h1.22c.31 0 .56.25.56.56zm-20.55-.56v-5.11a.39.39 0 0 0-.38-.4h-2.73a.39.39 0 0 0-.38.4v5.1zM44.28 35a.39.39 0 0 0-.38-.39h-2.73a.39.39 0 0 0-.39.4v9.86h3.5zm8.83 9.87V26.83a.39.39 0 0 0-.39-.4H50a.39.39 0 0 0-.38.4v18.04zm1.11-27.25v3.23c0 .31-.25.56-.56.56a.56.56 0 0 1-.55-.56v-1.92l-5.9 6a.55.55 0 0 1-.79 0l-2.08-2.1-9.61 9.77a.55.55 0 0 1-.8 0 .57.57 0 0 1 0-.8l10.02-10.18a.55.55 0 0 1 .79 0l2.07 2.11 5.51-5.6h-2.08a.56.56 0 0 1-.56-.56c0-.32.25-.57.56-.57h3.4a.57.57 0 0 1 .58.6v.02zm-21.76 16c.3 0 .55.25.55.56 0 .31-.25.57-.55.57a.56.56 0 0 1-.56-.57c0-.31.25-.57.56-.57z"></path><path d="M47.88 29.43l-3.08-6.5a.7.7 0 0 0-.52-.4.7.7 0 0 0-.6.19l-3.96 4.81a10.89 10.89 0 0 1-3.11 2.6l2.02 4.27c1.31-.52 2.73-.8 4.14-.78l6.09.03a.7.7 0 0 0 .52-.35.7.7 0 0 0 .02-.66.71.71 0 0 1 .33-.95.7.7 0 0 1 .95.34c.3.63.27 1.36-.07 1.97a2.12 2.12 0 0 1-1.72 1.08l-6.13-.04c-1.2 0-2.4.22-3.52.65l2.08 4.38a2.14 2.14 0 0 1-1 2.85c-.5.24-1.07.27-1.6.1-.54-.2-1-.6-1.25-1.13l-2.11-4.47a2.84 2.84 0 0 1-2.95-1.6l-.8-1.67a2.86 2.86 0 0 1 1.34-3.8l2.49-1.21a9.49 9.49 0 0 0 3.19-2.52l3.99-4.84a2.12 2.12 0 0 1 3.46.54l3.08 6.5c.16.35.01.77-.34.94a.7.7 0 0 1-.94-.33zm-12.54 1.34l-1.78.86c-.7.34-1 1.2-.67 1.9l.8 1.68c.31.67 1.1.98 1.8.7a.7.7 0 0 1 .9.36l2.36 5c.09.19.24.33.43.4.18.06.37.04.54-.04.34-.17.48-.6.32-.94z"></path></defs><g opacity="0.4" transform="translate(-27 -15)"><use xlink:href="#a"></use><use xlink:href="#a"></use></g><g transform="translate(-27 -15)"><use xlink:href="#b"></use><use xlink:href="#b"></use></g></symbol><symbol id="play-button" xmlns="http://www.w3.org/2000/svg" viewBox="0 0 41.999 41.999"><path d="M36.068 20.176l-29-20A1 1 0 1 0 5.5.999v40a1 1 0 0 0 1.568.823l29-20a.999.999 0 0 0 0-1.646z"></path></symbol><symbol id="share" xmlns="http://www.w3.org/2000/svg" viewBox="0 0 58.995 58.995"><path d="M39.927 41.929c-.524.524-.975 1.1-1.365 1.709l-17.28-10.489a9.93 9.93 0 0 0 .716-3.693 9.949 9.949 0 0 0-.715-3.693l17.284-10.409C40.342 18.142 43.454 20 46.998 20c5.514 0 10-4.486 10-10s-4.486-10-10-10-10 4.486-10 10a9.94 9.94 0 0 0 .667 3.562L20.358 23.985c-1.788-2.724-4.866-4.529-8.361-4.529-5.514 0-10 4.486-10 10s4.486 10 10 10c3.495 0 6.572-1.805 8.36-4.529L37.661 45.43a9.987 9.987 0 0 0-.664 3.57 9.932 9.932 0 0 0 2.929 7.071c1.949 1.949 4.51 2.924 7.071 2.924s5.122-.975 7.071-2.924c1.889-1.889 2.929-4.4 2.929-7.071s-1.04-5.183-2.929-7.071c-3.899-3.9-10.242-3.9-14.141 0zM46.998 2c4.411 0 8 3.589 8 8s-3.589 8-8 8-8-3.589-8-8 3.588-8 8-8zm-35 35.456c-4.411 0-8-3.589-8-8s3.589-8 8-8 8 3.589 8 8-3.589 8-8 8zm40.656 17.201c-3.119 3.119-8.194 3.119-11.313 0A7.95 7.95 0 0 1 38.998 49a7.95 7.95 0 0 1 2.343-5.657c1.56-1.56 3.608-2.339 5.657-2.339s4.097.779 5.657 2.339c1.511 1.511 2.343 3.521 2.343 5.657s-.832 4.146-2.344 5.657z"></path></symbol><symbol id="user-icon" xmlns="http://www.w3.org/2000/svg" viewBox="0 0 512 512"><path d="M374.45 332.463c-.407-.044-59.344 1.695-68.107-61.463 9.737-6.794 18.711-15.614 26.617-26.316 15.38-20.82 25.29-46.938 28.82-75.189a11.457 11.457 0 0 0 2.893-4.071c6.387-15.215 9.626-31.461 9.626-48.289C374.299 52.547 325.578 0 265.688 0c-15.663 0-30.859 3.608-45.211 10.733a79.443 79.443 0 0 0-15.985 2.867c-24.597 7.107-44.613 25.344-56.362 51.354-11.406 25.254-13.654 54.983-6.328 83.712a134.862 134.862 0 0 0 5.85 17.731 11.459 11.459 0 0 0 2.705 3.938c5.718 44.095 26.699 80.63 55.307 100.577-8.79 63.265-67.706 61.509-68.112 61.553-42.382 1.438-76.425 36.341-76.425 79.067v88.941c0 6.367 5.161 11.528 11.528 11.528h366.691c6.366 0 11.529-5.161 11.529-11.528v-88.941c-.001-42.728-34.041-77.632-76.425-79.069zM210.893 35.751c4.207-1.216 8.65-1.937 13.206-2.142a11.517 11.517 0 0 0 4.843-1.311c11.671-6.132 24.035-9.241 36.747-9.241 47.174 0 85.554 42.203 85.554 94.078 0 1.557-.044 3.106-.112 4.649-9.15-9.292-21.863-15.067-35.902-15.067h-78.571c-4.675 0-9.112-1.468-12.833-4.246a21.482 21.482 0 0 1-7.1-9.216 14.062 14.062 0 0 0-13.972-8.814 14.15 14.15 0 0 0-12.816 10.579c-4.553 17.496-13.632 33.612-26.088 46.681-11.59-47.699 9.327-95.053 47.044-105.95zm-10.03 199.389c-15.001-18.326-24.825-43.073-27.939-70.166 14.547-12.965 26.047-29.099 33.534-46.995a44.952 44.952 0 0 0 3.575 2.97c7.736 5.773 16.942 8.826 26.626 8.826h78.571c11.117 0 20.699 6.668 24.975 16.211-.001.082-.013.16-.013.242 0 65.078-37.76 118.023-84.174 118.023-20.2.001-39.789-10.338-55.155-29.111zm26.489 47.093c9.139 3.307 18.752 5.076 28.666 5.076 9.835 0 19.444-1.712 28.643-5.015 4.221 21.991 16.448 41.158 33.527 54.353l-60.535 86.208c-.395.563-.944.848-1.632.848-.687 0-1.236-.286-1.63-.847l-60.55-86.228c17.08-13.21 29.303-32.391 33.511-54.395zm200.465 206.71H84.183V411.53c0-30.922 25.157-56.079 56.079-56.079.42 0 18.971-.451 33.629-7.112l61.629 87.766a25.072 25.072 0 0 0 20.5 10.655h.001a25.073 25.073 0 0 0 20.5-10.655l61.618-87.752c16.717 7.099 33.18 7.099 33.6 7.099 30.922 0 56.078 25.157 56.078 56.079v77.412z"></path></symbol><symbol id="short-left-arrow" xmlns="http://www.w3.org/2000/svg" viewBox="0 0 129 129"><path d="M88.6 121.3c.8.8 1.8 1.2 2.9 1.2s2.1-.4 2.9-1.2c1.6-1.6 1.6-4.2 0-5.8l-51-51 51-51c1.6-1.6 1.6-4.2 0-5.8s-4.2-1.6-5.8 0l-54 53.9c-1.6 1.6-1.6 4.2 0 5.8l54 53.9z"></path></symbol></svg>